<svg width="24" height="24" viewBox="0 0 24 24" fill="none" xmlns="http://www.w3.org/2000/svg">
<g id="line" clip-path="url(#clip0_8_251)">
<path id="Vector" d="M22.6065 2.52465L21.5459 1.464L1.53492 21.4749L2.59557 22.5356L22.6065 2.52465Z" fill="#68687B"/>
<path id="Vector_2" d="M21.5 5C22.8807 5 24 3.88071 24 2.5C24 1.11929 22.8807 0 21.5 0C20.1193 0 19 1.11929 19 2.5C19 3.88071 20.1193 5 21.5 5Z" fill="#68687B"/>
<path id="Vector_3" d="M2.5 24C3.88071 24 5 22.8807 5 21.5C5 20.1193 3.88071 19 2.5 19C1.11929 19 0 20.1193 0 21.5C0 22.8807 1.11929 24 2.5 24Z" fill="#68687B"/>
</g>
<defs>
<clipPath id="clip0_8_251">
<rect width="24" height="24" fill="white"/>
</clipPath>
</defs>
</svg>
