<svg width="24" height="24" viewBox="0 0 24 24" fill="none" xmlns="http://www.w3.org/2000/svg">
<g clip-path="url(#clip0_8_180)">
<path d="M20.031 0.968994C19.8629 0.800639 19.6632 0.66708 19.4434 0.575955C19.2236 0.484831 18.988 0.437927 18.75 0.437927C18.5121 0.437927 18.2764 0.484831 18.0566 0.575955C17.8368 0.66708 17.6372 0.800639 17.469 0.968994L12.75 5.68949L11.781 4.71899C11.6402 4.57816 11.4492 4.49905 11.25 4.49905C11.0508 4.49905 10.8598 4.57816 10.719 4.71899C10.5782 4.85982 10.4991 5.05083 10.4991 5.24999C10.4991 5.44916 10.5782 5.64016 10.719 5.78099L12.4395 7.49999L1.71901 18.219C1.6494 18.2888 1.59424 18.3716 1.55666 18.4627C1.51908 18.5538 1.49983 18.6514 1.50001 18.75V21.4395L0.219005 22.719C0.0783742 22.8598 -0.000552452 23.0507 -0.0004118 23.2498C-0.000271147 23.4488 0.0789253 23.6396 0.219755 23.7802C0.360585 23.9209 0.551513 23.9998 0.750536 23.9997C0.949559 23.9995 1.14037 23.9203 1.28101 23.7795L2.56051 22.5H5.25001C5.34856 22.5002 5.44619 22.4809 5.5373 22.4433C5.62841 22.4058 5.71123 22.3506 5.78101 22.281L16.5 11.5605L18.219 13.281C18.3598 13.4218 18.5508 13.5009 18.75 13.5009C18.9492 13.5009 19.1402 13.4218 19.281 13.281C19.4218 13.1402 19.501 12.9492 19.501 12.75C19.501 12.5508 19.4218 12.3598 19.281 12.219L18.3105 11.25L23.031 6.53099C23.1994 6.36284 23.3329 6.16316 23.424 5.94335C23.5152 5.72355 23.5621 5.48794 23.5621 5.24999C23.5621 5.01205 23.5152 4.77644 23.424 4.55663C23.3329 4.33683 23.1994 4.13714 23.031 3.96899L20.031 0.968994ZM3.00001 19.0605L13.5 8.56049L15.4395 10.5L4.93951 21H3.00001V19.0605Z" fill="#68687B"/>
</g>
<defs>
<clipPath id="clip0_8_180">
<rect width="24" height="24" fill="white"/>
</clipPath>
</defs>
</svg>
