<svg xmlns="http://www.w3.org/2000/svg" width="31" height="14" fill="none"><rect width="31" height="14" fill="#FF642D" rx="6"/><path fill="#fff" d="M4.8 10V2.73h1.06v2.7h.07l.26-.4c.12-.14.28-.27.48-.39.21-.1.48-.17.82-.17a2.13 2.13 0 0 1 2 1.3c.2.42.3.92.3 1.51 0 .6-.1 1.1-.3 1.52a2.3 2.3 0 0 1-.81.97 2.1 2.1 0 0 1-1.18.34c-.33 0-.6-.06-.81-.17a1.54 1.54 0 0 1-.5-.4 2.96 2.96 0 0 1-.27-.39h-.09V10H4.8m1.04-2.73c0 .39.06.72.17 1.01.1.3.27.52.48.68.21.16.47.24.77.24.32 0 .59-.08.8-.25.21-.17.37-.4.48-.7a2.94 2.94 0 0 0 .01-1.95 1.48 1.48 0 0 0-.49-.68 1.26 1.26 0 0 0-.8-.24c-.3 0-.56.08-.78.23-.2.16-.37.38-.48.67a2.77 2.77 0 0 0-.16 1m7.79 2.83c-.54 0-1-.12-1.4-.34a2.34 2.34 0 0 1-.89-.98 3.3 3.3 0 0 1-.31-1.48c0-.56.1-1.05.31-1.48.21-.43.5-.76.88-1s.82-.36 1.33-.36c.3 0 .6.05.9.16a2.17 2.17 0 0 1 1.32 1.32c.13.35.2.77.2 1.26v.38h-4.34v-.8h3.3c0-.27-.06-.52-.17-.74a1.29 1.29 0 0 0-1.2-.7c-.3 0-.56.07-.78.22-.22.15-.4.34-.52.57a1.64 1.64 0 0 0-.17.76v.62c0 .36.06.67.19.93.13.25.31.45.54.58.24.14.5.2.82.2.2 0 .38-.03.55-.08a1.14 1.14 0 0 0 .7-.7l1 .19a1.82 1.82 0 0 1-.42.77 2.1 2.1 0 0 1-.78.52c-.31.12-.67.18-1.06.18m6.36-5.57v.86h-2.98v-.86h2.98m-2.18-1.3h1.06V8.4c0 .2.03.36.1.46.06.1.13.17.23.21.1.04.2.06.33.06.08 0 .16 0 .22-.02l.15-.03.19.88a2.07 2.07 0 0 1-.69.11 1.87 1.87 0 0 1-.78-.15 1.34 1.34 0 0 1-.59-.48c-.15-.22-.22-.5-.22-.82V3.24m5.24 6.88c-.35 0-.66-.06-.94-.2a1.58 1.58 0 0 1-.66-.56 1.63 1.63 0 0 1-.24-.9c0-.3.06-.56.17-.76a1.31 1.31 0 0 1 .48-.47c.2-.12.43-.2.68-.27.25-.06.5-.1.76-.13l.8-.1c.2-.02.35-.06.44-.12.1-.05.14-.15.14-.27V6.3a.94.94 0 0 0-.27-.72c-.17-.17-.43-.26-.77-.26a1.27 1.27 0 0 0-1.27.76l-1-.22a1.92 1.92 0 0 1 .52-.8c.23-.21.5-.36.8-.45a3.11 3.11 0 0 1 1.63-.07c.25.05.47.14.69.28.21.13.39.33.53.58a2 2 0 0 1 .2.97V10h-1.03v-.75h-.05a1.51 1.51 0 0 1-.3.4 1.64 1.64 0 0 1-.54.34 2.05 2.05 0 0 1-.77.13m.23-.85c.3 0 .55-.06.75-.18a1.18 1.18 0 0 0 .65-1.06v-.7a.55.55 0 0 1-.22.1c-.1.04-.23.06-.36.09l-.4.06-.33.04a2.63 2.63 0 0 0-.57.13.97.97 0 0 0-.4.27.67.67 0 0 0-.15.45c0 .27.1.47.29.6.2.13.44.2.74.2"/></svg>