<svg width="24" height="24" viewBox="0 0 24 24" fill="none" xmlns="http://www.w3.org/2000/svg">
<g id="bi:arrow-return-left">
<path id="Vector" fill-rule="evenodd" clip-rule="evenodd" d="M21.7507 21.0005C21.9496 21.0005 22.1403 20.9215 22.281 20.7808C22.4217 20.6402 22.5007 20.4494 22.5007 20.2505V13.0505C22.5007 12.558 22.4037 12.0704 22.2152 11.6154C22.0268 11.1605 21.7505 10.7471 21.4023 10.3988C21.0541 10.0506 20.6407 9.77439 20.1857 9.58594C19.7308 9.39748 19.2431 9.30049 18.7507 9.30049H4.06117L9.08167 4.28149C9.2225 4.14066 9.30162 3.94965 9.30162 3.75049C9.30162 3.55133 9.2225 3.36032 9.08167 3.21949C8.94084 3.07866 8.74983 2.99954 8.55067 2.99954C8.35151 2.99954 8.1605 3.07866 8.01967 3.21949L1.71967 9.51949C1.64982 9.58916 1.59441 9.67192 1.5566 9.76304C1.51879 9.85416 1.49933 9.95184 1.49933 10.0505C1.49933 10.1491 1.51879 10.2468 1.5566 10.3379C1.59441 10.4291 1.64982 10.5118 1.71967 10.5815L7.71967 16.5815C7.8605 16.7223 8.05151 16.8014 8.25067 16.8014C8.44983 16.8014 8.64084 16.7223 8.78167 16.5815C8.9225 16.4407 9.00162 16.2497 9.00162 16.0505C9.00162 15.8513 8.9225 15.6603 8.78167 15.5195L4.06117 10.8005H18.7507C19.3474 10.8005 19.9197 11.0375 20.3417 11.4595C20.7636 11.8815 21.0007 12.4538 21.0007 13.0505V20.2505C21.0007 20.4494 21.0797 20.6402 21.2203 20.7808C21.361 20.9215 21.5518 21.0005 21.7507 21.0005Z" fill="#68687B"/>
</g>
</svg>
