<svg width="24" height="24" viewBox="0 0 24 24" fill="none" xmlns="http://www.w3.org/2000/svg">
<g id="bi:arrow-return-right">
<path id="Vector" fill-rule="evenodd" clip-rule="evenodd" d="M2.24933 2.99951C2.05042 2.99951 1.85965 3.07853 1.719 3.21918C1.57835 3.35983 1.49933 3.5506 1.49933 3.74951V10.9495C1.49933 11.442 1.59633 11.9296 1.78478 12.3846C1.97324 12.8395 2.24946 13.2529 2.59768 13.6012C2.9459 13.9494 3.3593 14.2256 3.81427 14.4141C4.26924 14.6025 4.75687 14.6995 5.24933 14.6995H19.9388L14.9183 19.7185C14.7775 19.8593 14.6984 20.0503 14.6984 20.2495C14.6984 20.4487 14.7775 20.6397 14.9183 20.7805C15.0592 20.9213 15.2502 21.0005 15.4493 21.0005C15.6485 21.0005 15.8395 20.9213 15.9803 20.7805L22.2803 14.4805C22.3502 14.4108 22.4056 14.3281 22.4434 14.237C22.4812 14.1458 22.5007 14.0482 22.5007 13.9495C22.5007 13.8509 22.4812 13.7532 22.4434 13.6621C22.4056 13.5709 22.3502 13.4882 22.2803 13.4185L16.2803 7.41851C16.1395 7.27768 15.9485 7.19856 15.7493 7.19856C15.5502 7.19856 15.3592 7.27768 15.2183 7.41851C15.0775 7.55934 14.9984 7.75035 14.9984 7.94951C14.9984 8.14868 15.0775 8.33968 15.2183 8.48051L19.9388 13.1995H5.24933C4.65259 13.1995 4.0803 12.9625 3.65834 12.5405C3.23638 12.1185 2.99933 11.5462 2.99933 10.9495V3.74951C2.99933 3.5506 2.92031 3.35983 2.77966 3.21918C2.63901 3.07853 2.44824 2.99951 2.24933 2.99951Z" fill="#68687B"/>
</g>
</svg>
