<svg width="24" height="24" viewBox="0 0 24 24" fill="none" xmlns="http://www.w3.org/2000/svg">
<g id="bi:gear" clip-path="url(#clip0_8_653)">
<g id="Vector">
<path d="M12 7.131C11.3606 7.131 10.7275 7.25694 10.1367 7.50163C9.54599 7.74632 9.00924 8.10497 8.55711 8.55709C8.10498 9.00922 7.74633 9.54598 7.50164 10.1367C7.25695 10.7274 7.13101 11.3606 7.13101 12C7.13101 12.6394 7.25695 13.2725 7.50164 13.8633C7.74633 14.454 8.10498 14.9908 8.55711 15.4429C9.00924 15.895 9.54599 16.2537 10.1367 16.4984C10.7275 16.7431 11.3606 16.869 12 16.869C13.2914 16.869 14.5298 16.356 15.4429 15.4429C16.356 14.5298 16.869 13.2913 16.869 12C16.869 10.7087 16.356 9.47021 15.4429 8.55709C14.5298 7.64398 13.2914 7.131 12 7.131ZM8.63101 12C8.63101 11.1065 8.98596 10.2496 9.61777 9.61775C10.2496 8.98594 11.1065 8.631 12 8.631C12.8935 8.631 13.7504 8.98594 14.3823 9.61775C15.0141 10.2496 15.369 11.1065 15.369 12C15.369 12.8935 15.0141 13.7504 14.3823 14.3822C13.7504 15.0141 12.8935 15.369 12 15.369C11.1065 15.369 10.2496 15.0141 9.61777 14.3822C8.98596 13.7504 8.63101 12.8935 8.63101 12Z" fill="#68687B"/>
<path d="M14.694 2.0145C13.9035 -0.670502 10.0965 -0.670502 9.30601 2.0145L9.16501 2.493C9.10981 2.68043 9.01336 2.85312 8.88274 2.99844C8.75212 3.14375 8.59063 3.25798 8.41012 3.33278C8.22962 3.40757 8.03466 3.44102 7.83954 3.43067C7.64443 3.42033 7.4541 3.36646 7.28251 3.273L6.84451 3.033C4.38451 1.695 1.69501 4.386 3.03451 6.8445L3.27301 7.2825C3.36647 7.45409 3.42035 7.64441 3.43069 7.83953C3.44103 8.03464 3.40758 8.2296 3.33279 8.41011C3.258 8.59062 3.14376 8.7521 2.99845 8.88272C2.85314 9.01334 2.68044 9.10979 2.49301 9.165L2.01451 9.306C-0.670487 10.0965 -0.670487 13.9035 2.01451 14.694L2.49301 14.835C2.68044 14.8902 2.85314 14.9867 2.99845 15.1173C3.14376 15.2479 3.258 15.4094 3.33279 15.5899C3.40758 15.7704 3.44103 15.9654 3.43069 16.1605C3.42035 16.3556 3.36647 16.5459 3.27301 16.7175L3.03301 17.1555C1.69501 19.6155 4.38451 22.3065 6.84451 20.9655L7.28251 20.727C7.4541 20.6335 7.64443 20.5797 7.83954 20.5693C8.03466 20.559 8.22962 20.5924 8.41012 20.6672C8.59063 20.742 8.75212 20.8563 8.88274 21.0016C9.01336 21.1469 9.10981 21.3196 9.16501 21.507L9.30601 21.9855C10.0965 24.6705 13.9035 24.6705 14.694 21.9855L14.835 21.507C14.8902 21.3196 14.9867 21.1469 15.1173 21.0016C15.2479 20.8563 15.4094 20.742 15.5899 20.6672C15.7704 20.5924 15.9654 20.559 16.1605 20.5693C16.3556 20.5797 16.5459 20.6335 16.7175 20.727L17.1555 20.967C19.6155 22.3065 22.3065 19.614 20.9655 17.1555L20.727 16.7175C20.6336 16.5459 20.5797 16.3556 20.5693 16.1605C20.559 15.9654 20.5924 15.7704 20.6672 15.5899C20.742 15.4094 20.8563 15.2479 21.0016 15.1173C21.1469 14.9867 21.3196 14.8902 21.507 14.835L21.9855 14.694C24.6705 13.9035 24.6705 10.0965 21.9855 9.306L21.507 9.165C21.3196 9.10979 21.1469 9.01334 21.0016 8.88272C20.8563 8.7521 20.742 8.59062 20.6672 8.41011C20.5924 8.2296 20.559 8.03464 20.5693 7.83953C20.5797 7.64441 20.6336 7.45409 20.727 7.2825L20.967 6.8445C22.3065 4.3845 19.614 1.695 17.1555 3.0345L16.7175 3.273C16.5459 3.36646 16.3556 3.42033 16.1605 3.43067C15.9654 3.44102 15.7704 3.40757 15.5899 3.33278C15.4094 3.25798 15.2479 3.14375 15.1173 2.99844C14.9867 2.85312 14.8902 2.68043 14.835 2.493L14.694 2.0145ZM10.7445 2.439C11.1135 1.1865 12.8865 1.1865 13.2555 2.439L13.3965 2.9175C13.515 3.31963 13.7221 3.69013 14.0024 4.00185C14.2827 4.31356 14.6293 4.55859 15.0166 4.71897C15.404 4.87934 15.8223 4.951 16.2409 4.92868C16.6596 4.90637 17.0679 4.79064 17.436 4.59L17.8725 4.35C19.0185 3.7275 20.2725 4.98 19.6485 6.1275L19.41 6.5655C19.2097 6.93364 19.0942 7.34194 19.0722 7.76048C19.0501 8.17902 19.1219 8.5972 19.2824 8.98437C19.4429 9.37155 19.688 9.7179 19.9998 9.99806C20.3115 10.2782 20.682 10.4851 21.084 10.6035L21.561 10.7445C22.8135 11.1135 22.8135 12.8865 21.561 13.2555L21.0825 13.3965C20.6804 13.515 20.3099 13.722 19.9982 14.0024C19.6864 14.2827 19.4414 14.6293 19.281 15.0166C19.1207 15.404 19.049 15.8223 19.0713 16.2409C19.0936 16.6596 19.2094 17.0679 19.41 17.436L19.65 17.8725C20.2725 19.0185 19.02 20.2725 17.8725 19.6485L17.436 19.41C17.0678 19.2094 16.6594 19.0937 16.2407 19.0715C15.8219 19.0493 15.4036 19.121 15.0162 19.2816C14.6288 19.4421 14.2823 19.6873 14.002 19.9992C13.7218 20.3111 13.5149 20.6817 13.3965 21.084L13.2555 21.561C12.8865 22.8135 11.1135 22.8135 10.7445 21.561L10.6035 21.0825C10.4849 20.6806 10.2779 20.3103 9.99771 19.9987C9.71748 19.6872 9.3711 19.4422 8.98395 19.2819C8.5968 19.1215 8.17868 19.0498 7.76022 19.072C7.34176 19.0941 6.93355 19.2096 6.56551 19.41L6.12751 19.65C4.98151 20.2725 3.72751 19.02 4.35151 17.8725L4.59001 17.436C4.79094 17.0678 4.90689 16.6594 4.92935 16.2405C4.95182 15.8217 4.88022 15.4032 4.71983 15.0157C4.55943 14.6281 4.31431 14.2814 4.00243 14.001C3.69056 13.7205 3.31985 13.5135 2.91751 13.395L2.43901 13.254C1.18651 12.885 1.18651 11.112 2.43901 10.743L2.91751 10.602C3.31922 10.4834 3.68932 10.2764 4.00073 9.99628C4.31213 9.71615 4.55696 9.36994 4.71729 8.98298C4.87763 8.59602 4.94941 8.17811 4.92739 7.75983C4.90536 7.34155 4.79009 6.93348 4.59001 6.5655L4.35001 6.1275C3.72751 4.9815 4.98001 3.7275 6.12751 4.3515L6.56551 4.59C6.93355 4.79036 7.34176 4.90586 7.76022 4.92803C8.17868 4.9502 8.5968 4.87848 8.98395 4.71812C9.3711 4.55777 9.71748 4.31284 9.99771 4.00128C10.2779 3.68972 10.4849 3.31942 10.6035 2.9175L10.7445 2.439Z" fill="#68687B"/>
</g>
</g>
<defs>
<clipPath id="clip0_8_653">
<rect width="24" height="24" fill="white"/>
</clipPath>
</defs>
</svg>
