<svg width="24" height="24" viewBox="0 0 24 24" fill="none" xmlns="http://www.w3.org/2000/svg">
<g id="lowPolyShape" clip-path="url(#clip0_8_317)">
<path id="Vector" d="M21.5 24C22.8807 24 24 22.8807 24 21.5C24 20.1193 22.8807 19 21.5 19C20.1193 19 19 20.1193 19 21.5C19 22.8807 20.1193 24 21.5 24Z" fill="#68687B"/>
<path id="Vector_2" d="M2.5 24C3.88071 24 5 22.8807 5 21.5C5 20.1193 3.88071 19 2.5 19C1.11929 19 0 20.1193 0 21.5C0 22.8807 1.11929 24 2.5 24Z" fill="#68687B"/>
<path id="Vector_3" d="M2.5 5C3.88071 5 5 3.88071 5 2.5C5 1.11929 3.88071 0 2.5 0C1.11929 0 0 1.11929 0 2.5C0 3.88071 1.11929 5 2.5 5Z" fill="#68687B"/>
<path id="Vector_4" d="M15 5C16.3807 5 17.5 3.88071 17.5 2.5C17.5 1.11929 16.3807 0 15 0C13.6193 0 12.5 1.11929 12.5 2.5C12.5 3.88071 13.6193 5 15 5Z" fill="#68687B"/>
<path id="Vector_5" d="M21.5 11.5C22.8807 11.5 24 10.3807 24 9C24 7.61929 22.8807 6.5 21.5 6.5C20.1193 6.5 19 7.61929 19 9C19 10.3807 20.1193 11.5 21.5 11.5Z" fill="#68687B"/>
<path id="Vector_6" d="M2.5 21.5V2.5H15L21.5 9V21.5H2.5Z" stroke="#68687B" stroke-width="1.5" stroke-miterlimit="10"/>
</g>
<defs>
<clipPath id="clip0_8_317">
<rect width="24" height="24" fill="white"/>
</clipPath>
</defs>
</svg>
