<svg width="24" height="24" viewBox="0 0 24 24" fill="none" xmlns="http://www.w3.org/2000/svg">
<g clip-path="url(#clip0_8_379)">
<path d="M18.219 0.218998C18.2887 0.149153 18.3714 0.0937388 18.4626 0.0559291C18.5537 0.0181194 18.6514 -0.00134277 18.75 -0.00134277C18.8487 -0.00134277 18.9463 0.0181194 19.0375 0.0559291C19.1286 0.0937388 19.2113 0.149153 19.281 0.218998L23.781 4.719C23.8509 4.78867 23.9063 4.87143 23.9441 4.96255C23.9819 5.05367 24.0014 5.15135 24.0014 5.25C24.0014 5.34865 23.9819 5.44633 23.9441 5.53745C23.9063 5.62857 23.8509 5.71133 23.781 5.781L8.78101 20.781C8.70904 20.8525 8.62331 20.9086 8.52901 20.946L1.02901 23.946C0.892718 24.0006 0.743408 24.0139 0.599594 23.9844C0.455779 23.9549 0.323785 23.8838 0.219975 23.78C0.116166 23.6762 0.0451054 23.5442 0.0156042 23.4004C-0.013897 23.2566 -0.000541717 23.1073 0.0540143 22.971L3.05401 15.471C3.09141 15.3767 3.14754 15.291 3.21901 15.219L18.219 0.218998ZM19.1895 8.25L15.75 4.8105L6.00001 14.5605V15H6.75001C6.94893 15 7.13969 15.079 7.28034 15.2197C7.421 15.3603 7.50001 15.5511 7.50001 15.75V16.5H8.25001C8.44893 16.5 8.63969 16.579 8.78034 16.7197C8.921 16.8603 9.00001 17.0511 9.00001 17.25V18H9.43951L19.1895 8.25ZM4.54801 16.0125L4.38901 16.1715L2.09701 21.903L7.82851 19.611L7.98751 19.452C7.84444 19.3985 7.7211 19.3027 7.63399 19.1772C7.54687 19.0518 7.50013 18.9027 7.50001 18.75V18H6.75001C6.5511 18 6.36034 17.921 6.21968 17.7803C6.07903 17.6397 6.00001 17.4489 6.00001 17.25V16.5H5.25001C5.09728 16.4999 4.94823 16.4531 4.82278 16.366C4.69733 16.2789 4.60147 16.1556 4.54801 16.0125Z" fill="#68687B"/>
</g>
<defs>
<clipPath id="clip0_8_379">
<rect width="24" height="24" fill="white"/>
</clipPath>
</defs>
</svg>
