<svg width="24" height="24" viewBox="0 0 24 24" fill="none" xmlns="http://www.w3.org/2000/svg">
<g id="bi:textarea-tCustom" clip-path="url(#clip0_8_389)">
<g id="Vector">
<path d="M2.25 3.75C2.25 3.15326 2.48705 2.58097 2.90901 2.15901C3.33097 1.73705 3.90326 1.5 4.5 1.5H19.5C20.0967 1.5 20.669 1.73705 21.091 2.15901C21.5129 2.58097 21.75 3.15326 21.75 3.75V9.0945C22.3946 9.26025 22.9659 9.63567 23.3737 10.1617C23.7816 10.6877 24.003 11.3344 24.003 12C24.003 12.6656 23.7816 13.3123 23.3737 13.8383C22.9659 14.3643 22.3946 14.7398 21.75 14.9055V20.25C21.75 20.8467 21.5129 21.419 21.091 21.841C20.669 22.2629 20.0967 22.5 19.5 22.5H4.5C3.90326 22.5 3.33097 22.2629 2.90901 21.841C2.48705 21.419 2.25 20.8467 2.25 20.25V14.9055C1.60536 14.7398 1.03414 14.3643 0.626268 13.8383C0.218398 13.3123 -0.00296021 12.6656 -0.00296021 12C-0.00296021 11.3344 0.218398 10.6877 0.626268 10.1617C1.03414 9.63567 1.60536 9.26025 2.25 9.0945V3.75ZM3.75 9.0945C4.39464 9.26025 4.96586 9.63567 5.37373 10.1617C5.7816 10.6877 6.00296 11.3344 6.00296 12C6.00296 12.6656 5.7816 13.3123 5.37373 13.8383C4.96586 14.3643 4.39464 14.7398 3.75 14.9055V20.25C3.75 20.4489 3.82902 20.6397 3.96967 20.7803C4.11032 20.921 4.30109 21 4.5 21H19.5C19.6989 21 19.8897 20.921 20.0303 20.7803C20.171 20.6397 20.25 20.4489 20.25 20.25V14.9055C19.6054 14.7398 19.0341 14.3643 18.6263 13.8383C18.2184 13.3123 17.997 12.6656 17.997 12C17.997 11.3344 18.2184 10.6877 18.6263 10.1617C19.0341 9.63567 19.6054 9.26025 20.25 9.0945V3.75C20.25 3.55109 20.171 3.36032 20.0303 3.21967C19.8897 3.07902 19.6989 3 19.5 3H4.5C4.30109 3 4.11032 3.07902 3.96967 3.21967C3.82902 3.36032 3.75 3.55109 3.75 3.75V9.0945Z" fill="#68687B"/>
<path d="M17.151 6H6.849L6.75 8.991H7.329C7.644 7.113 8.247 6.822 10.5885 6.7485L11.103 6.732V16.2465C11.103 17.052 10.929 17.244 9.5295 17.3685V18H14.4705V17.3685C13.0635 17.244 12.8895 17.0535 12.8895 16.2465V6.732L13.4115 6.747C15.7515 6.822 16.356 7.113 16.671 8.991H17.25L17.151 6Z" fill="#68687B"/>
</g>
</g>
<defs>
<clipPath id="clip0_8_389">
<rect width="24" height="24" fill="white"/>
</clipPath>
</defs>
</svg>
