<svg width="24" height="24" viewBox="0 0 24 24" fill="none" xmlns="http://www.w3.org/2000/svg">
<path d="M9.28799 4.17C8.60099 3.1545 7.89749 2.298 7.26299 1.7055C6.94815 1.39674 6.58925 1.13641 6.19799 0.932996C5.87249 0.776996 5.35799 0.625496 4.87499 0.902996C4.32449 1.2225 4.23449 1.848 4.22999 2.247C4.22549 2.703 4.32599 3.243 4.48949 3.813C4.78349 4.8435 5.32349 6.105 6.04199 7.416L1.12799 12.33C0.712493 12.7455 0.724494 13.314 0.800994 13.707C0.883494 14.1315 1.08149 14.5965 1.34099 15.0615C1.86299 16.002 2.72099 17.103 3.77999 18.1635C4.84049 19.224 5.94149 20.0805 6.88199 20.6025C7.34699 20.862 7.81199 21.06 8.23649 21.1425C8.62949 21.2175 9.19649 21.231 9.61349 20.8155L18.036 12.393C18.213 12.7785 18.174 13.161 18.111 13.8015C18.066 14.2395 18.009 14.799 18.0015 15.5655V15.75H18.006C18.0374 16.1248 18.2085 16.4741 18.4854 16.7287C18.7622 16.9833 19.1246 17.1246 19.5007 17.1246C19.8769 17.1246 20.2393 16.9833 20.5161 16.7287C20.793 16.4741 20.9641 16.1248 20.9955 15.75H21V15.6645C21.0014 15.6059 20.9994 15.5473 20.994 15.489C20.9115 13.614 19.944 11.382 18.204 10.248C18.1107 10.0253 18.005 9.80793 17.8875 9.597C17.364 8.658 16.5075 7.557 15.447 6.4965C14.3865 5.436 13.2855 4.578 12.345 4.056C11.88 3.798 11.415 3.6 10.9905 3.516C10.5975 3.441 10.0305 3.429 9.61349 3.8445L9.28799 4.17ZM6.23999 2.8005C6.81149 3.3345 7.50599 4.1835 8.20649 5.2485L7.15049 6.306C6.57749 5.2155 6.16049 4.203 5.93099 3.399C5.83044 3.07028 5.76458 2.73193 5.73449 2.3895C5.87099 2.481 6.04049 2.6145 6.23999 2.8005ZM6.83099 8.748C7.64099 10.026 8.49149 11.0985 9.24149 11.7975C9.31359 11.8647 9.39821 11.917 9.49052 11.9514C9.58284 11.9859 9.68103 12.0019 9.77951 11.9984C9.87799 11.9949 9.97481 11.9721 10.0645 11.9312C10.1541 11.8903 10.2348 11.8321 10.302 11.76C10.3692 11.6879 10.4215 11.6033 10.4559 11.511C10.4904 11.4187 10.5064 11.3205 10.5029 11.222C10.4994 11.1235 10.4766 11.0267 10.4357 10.937C10.3947 10.8474 10.3366 10.7667 10.2645 10.6995C9.58499 10.0665 8.73899 8.9955 7.91849 7.659L9.55049 6.027C9.63149 6.207 9.72299 6.3915 9.82499 6.5745C10.3485 7.515 11.205 8.616 12.2655 9.6765C13.3245 10.737 14.4255 11.5935 15.3675 12.1155C15.5505 12.2175 15.7335 12.3105 15.915 12.39L8.62349 19.683C8.58922 19.68 8.55516 19.675 8.52149 19.668C8.31599 19.6275 8.00849 19.512 7.60949 19.29C6.82349 18.852 5.83049 18.09 4.84049 17.1C3.85049 16.11 3.08849 15.12 2.65049 14.331C2.42999 13.9335 2.31299 13.626 2.27399 13.4205C2.26696 13.3868 2.26195 13.3528 2.25899 13.3185L6.83099 8.748ZM11.136 5.8455C10.9807 5.58124 10.8593 5.29853 10.7745 5.004C10.977 5.0535 11.2605 5.169 11.6175 5.3655C12.4035 5.8035 13.3965 6.5655 14.3865 7.5555C15.0615 8.2305 15.6315 8.907 16.0635 9.5205C15.5266 9.48371 14.9873 9.52975 14.4645 9.657C14.0688 9.32754 13.6884 8.98018 13.3245 8.616C12.3345 7.626 11.574 6.633 11.1375 5.8455H11.136Z" fill="#68687B"/>
</svg>
