<svg width="24" height="24" viewBox="0 0 24 24" fill="none" xmlns="http://www.w3.org/2000/svg">
<path d="M12.129 3.3105C12.6916 2.74809 13.4545 2.43214 14.25 2.43214C15.0455 2.43214 15.8084 2.74809 16.371 3.3105L22.1895 9.129C22.7519 9.69159 23.0679 10.4545 23.0679 11.25C23.0679 12.0455 22.7519 12.8084 22.1895 13.371L13.9395 21.621C13.377 22.1837 12.6141 22.4998 11.8185 22.5H7.67999C6.88441 22.4998 6.12147 22.1837 5.55899 21.621L1.80899 17.871C1.24658 17.3084 0.930634 16.5455 0.930634 15.75C0.930634 14.9545 1.24658 14.1916 1.80899 13.629L12.1275 3.3105H12.129ZM15.3105 4.371C15.0292 4.0898 14.6477 3.93182 14.25 3.93182C13.8522 3.93182 13.4708 4.0898 13.1895 4.371L6.23999 11.3205L14.1795 19.26L21.129 12.3105C21.4102 12.0292 21.5682 11.6478 21.5682 11.25C21.5682 10.8523 21.4102 10.4708 21.129 10.1895L15.3105 4.371ZM13.119 20.3205L5.17949 12.381L2.87099 14.6895C2.58979 14.9708 2.43181 15.3523 2.43181 15.75C2.43181 16.1477 2.58979 16.5292 2.87099 16.8105L6.62099 20.5605C6.90223 20.8418 7.2837 20.9999 7.68149 21H11.82C12.2178 20.9999 12.5993 20.8418 12.8805 20.5605L13.119 20.3205Z" fill="#68687B"/>
</svg>
