<svg width="24" height="24" viewBox="0 0 24 24" fill="none" xmlns="http://www.w3.org/2000/svg">
<g id="bend" clip-path="url(#clip0_8_285)">
<path id="Vector" d="M21.5 5C22.8807 5 24 3.88071 24 2.5C24 1.11929 22.8807 0 21.5 0C20.1193 0 19 1.11929 19 2.5C19 3.88071 20.1193 5 21.5 5Z" fill="#68687B"/>
<path id="Vector_2" d="M2.5 24C3.88071 24 5 22.8807 5 21.5C5 20.1193 3.88071 19 2.5 19C1.11929 19 0 20.1193 0 21.5C0 22.8807 1.11929 24 2.5 24Z" fill="#68687B"/>
<path id="Vector_3" d="M2.5 21.5C2.5 11 11 2.5 21.5 2.5" stroke="#68687B" stroke-width="1.5" stroke-miterlimit="10"/>
</g>
<defs>
<clipPath id="clip0_8_285">
<rect width="24" height="24" fill="white"/>
</clipPath>
</defs>
</svg>
