<svg width="24" height="24" viewBox="0 0 24 24" fill="none" xmlns="http://www.w3.org/2000/svg">
<path d="M20.0385 16.857C22.59 14.58 24 12 24 12C24 12 19.5 3.74999 12 3.74999C10.5594 3.75495 9.13508 4.05513 7.815 4.63199L8.97 5.78849C9.94115 5.43473 10.9664 5.25251 12 5.24999C15.18 5.24999 17.8185 7.00199 19.752 8.93549C20.6825 9.87103 21.5167 10.8977 22.242 12C22.155 12.1305 22.059 12.2745 21.9495 12.432C21.447 13.152 20.7045 14.112 19.752 15.0645C19.5045 15.312 19.2465 15.5565 18.9765 15.7935L20.0385 16.857Z" fill="#68687B"/>
<path d="M16.9455 13.764C17.2802 12.8278 17.3422 11.8157 17.1243 10.8456C16.9063 9.87553 16.4173 8.98728 15.7143 8.28422C15.0112 7.58116 14.123 7.0922 13.1529 6.87424C12.1828 6.65627 11.1707 6.71826 10.2345 7.05299L11.469 8.28749C12.0455 8.20498 12.6332 8.25786 13.1857 8.44194C13.7382 8.62602 14.2402 8.93623 14.652 9.34801C15.0638 9.75979 15.374 10.2618 15.5581 10.8143C15.7421 11.3668 15.795 11.9545 15.7125 12.531L16.9455 13.764ZM12.531 15.7125L13.764 16.9455C12.8278 17.2802 11.8157 17.3422 10.8456 17.1242C9.87554 16.9063 8.98729 16.4173 8.28423 15.7143C7.58117 15.0112 7.09221 14.123 6.87424 13.1529C6.65628 12.1828 6.71827 11.1707 7.053 10.2345L8.2875 11.469C8.20499 12.0455 8.25787 12.6332 8.44195 13.1857C8.62602 13.7382 8.93624 14.2402 9.34802 14.652C9.75979 15.0638 10.2618 15.374 10.8143 15.5581C11.3668 15.7421 11.9545 15.795 12.531 15.7125Z" fill="#68687B"/>
<path d="M5.025 8.20499C4.755 8.44499 4.4955 8.68799 4.248 8.93549C3.31747 9.87103 2.48328 10.8977 1.758 12L2.0505 12.432C2.553 13.152 3.2955 14.112 4.248 15.0645C6.1815 16.998 8.8215 18.75 12 18.75C13.074 18.75 14.085 18.5505 15.03 18.21L16.185 19.368C14.8649 19.9448 13.4406 20.245 12 20.25C4.5 20.25 0 12 0 12C0 12 1.4085 9.41849 3.9615 7.14299L5.0235 8.20649L5.025 8.20499ZM20.469 21.531L2.469 3.53099L3.531 2.46899L21.531 20.469L20.469 21.531Z" fill="#68687B"/>
</svg>
