<svg width="125" height="42" viewBox="0 0 125 42" fill="none" xmlns="http://www.w3.org/2000/svg">
<path fill-rule="evenodd" clip-rule="evenodd" d="M68.5449 20.2048C68.5449 20.2048 67.3465 19.4638 66.6055 19.1771C66.6055 19.1771 64.3117 18.1139 63.8566 17.6081C63.8566 17.6081 62.9626 16.7656 63.4861 15.7871C63.4861 15.7871 63.7052 15.1468 64.6499 15.1468C64.6499 15.1468 65.8798 15.2144 65.8798 16.2253V17.6512H70.2875L70.2798 15.5511C70.2798 15.5511 70.6188 12.112 65.088 11.9605C65.088 11.9605 60.738 11.6746 59.4904 14.0176C59.4904 14.0176 59.0007 14.5403 59.0007 16.3605V17.6758C59.0007 17.6758 58.9508 19.1932 59.7256 20.171C59.7256 20.171 60.1638 20.8121 61.243 21.5193C61.243 21.5193 63.4346 22.6992 64.7498 23.3749C64.7498 23.3749 66.0774 24.1328 65.9029 25.3389C65.9029 25.3389 65.7945 26.5773 64.5123 26.5266C64.5123 26.5266 63.34 26.4743 63.34 25.2597V23.8346H58.6433V25.9047C58.6433 25.9047 58.5118 29.8635 64.5469 29.8635C64.5469 29.8635 70.3136 29.9803 70.5827 25.8009V24.1152C70.5819 24.1152 70.7864 21.5539 68.5449 20.2048ZM45.979 12.4533L44.5031 21.7022H44.158L42.7482 12.5363H35.3856L35.0166 29.2854H39.3759L39.4282 16.6657H39.771L42.0817 29.2831H46.6678L48.95 16.6703H49.2537L49.359 29.2854H53.7413L53.2693 12.4533H45.979ZM20.0293 12.5232L17.129 29.2662H21.8219L23.54 16.2844H23.9259L25.6431 29.2662H30.3352L27.4357 12.5232H20.0293ZM118.501 19.9742V22.444H119.705V25.0952C119.705 26.3913 118.597 26.4151 118.597 26.4151C117.25 26.4151 117.301 25.1836 117.301 25.1836V16.0131C117.301 15.0684 118.496 15.0176 118.496 15.0176C119.643 15.0176 119.651 16.1445 119.651 16.1445V17.539H124.069C124.214 14.817 123.671 14.1582 123.671 14.1582C122.575 11.6969 118.429 11.8314 118.429 11.8314C112.057 11.8314 112.764 16.7203 112.764 16.7203V25.5872C112.901 30.1725 119.18 29.7067 119.286 29.7028C122.078 29.3938 122.922 28.506 122.922 28.506C123.698 27.9294 123.898 27.1308 123.898 27.1308C124.12 26.6657 124.175 25.1836 124.175 25.1836V19.9742H118.501ZM103.855 22.6992H103.663L99.179 12.4579H93.8143V29.287H98.1805L97.9191 19.0471H98.1143L102.76 29.287H107.961V12.4563H103.54L103.855 22.6992ZM83.1563 25.0937C83.1563 25.0937 83.2193 26.4751 81.9387 26.4751C81.9387 26.4751 80.5919 26.5473 80.5919 25.1283L80.5781 12.4679H75.7891V25.0276C75.7891 25.0276 75.2979 29.7812 82.0063 29.7812C82.0063 29.7812 87.8361 29.8504 87.8361 25.2459V12.4686H83.1563V25.0937ZM10.8995 20.2048C10.8995 20.2048 9.70265 19.4638 8.96086 19.1778C8.96086 19.1778 6.6686 18.1155 6.21353 17.6089C6.21353 17.6089 5.31954 16.7649 5.84379 15.7886C5.84379 15.7886 6.0621 15.1483 7.00606 15.1483C7.00606 15.1483 8.23674 15.2152 8.23674 16.226V17.652H12.646L12.6375 15.5511C12.6375 15.5511 12.9742 12.112 7.44575 11.9613C7.44575 11.9613 7.02912 11.9344 6.41801 11.9651C6.41801 11.9651 3.06879 12.145 1.87116 13.9822C1.86425 13.996 1.85425 14.006 1.84733 14.0183C1.84733 14.0183 1.35844 14.5403 1.35844 16.3613V17.6766C1.35844 17.6766 1.30771 19.194 2.08332 20.1717C2.08332 20.1717 2.52148 20.8128 3.60073 21.52C3.60073 21.52 5.79152 22.7 7.10676 23.3757C7.10676 23.3757 8.43584 24.1321 8.2598 25.3397C8.2598 25.3397 8.15142 26.5781 6.87 26.5273C6.87 26.5273 5.69774 26.4751 5.69774 25.2605V23.8346H1.00023V25.9062C1.00023 25.9062 0.868782 29.865 6.90382 29.865C6.90382 29.865 12.6691 29.9819 12.9404 25.8024V24.1182C12.9404 24.1167 13.1418 21.5539 10.8995 20.2048Z" fill="#fff"/>
</svg>
