<svg width="91" height="43" fill="none" xmlns="http://www.w3.org/2000/svg"><g clip-path="url(#clip0_2310_4488)"><path d="M59.627 24.734v3.96H47.486V7.5h12.141v3.947h-7.576v4.159h7.576v3.759h-7.576v5.369h7.576Zm7.123 3.96h-5.46l5.884-6.2.326-.344-.326-.344-5.883-6.2h5.677l3.166 3.27.366.378.359-.386 3.04-3.262h5.426l-5.853 6.17-.327.346.328.344 5.941 6.228h-5.701l-3.134-3.295-.364-.382-.362.384-3.103 3.293Z" stroke="#fff"/><path fill-rule="evenodd" clip-rule="evenodd" d="M41.445 7v9.083h-.063c-1.227-1.323-2.76-1.782-4.538-1.782-3.674 0-6.404 2.373-7.345 5.482-1.082-3.429-3.91-5.546-8.143-5.546-3.438 0-6.115 1.477-7.514 3.849v-2.98H6.79v-3.16h7.698V7H.5v22.194h6.29v-9.33h6.303c-.19.691-.323 1.413-.323 2.195 0 4.63 3.77 7.879 8.586 7.879 4.049 0 6.717-1.783 8.129-5.032h-5.39c-.728.978-1.282 1.266-2.74 1.266-1.69 0-3.146-1.381-3.146-3.02h11.003C29.691 26.825 32.714 30 36.905 30c1.809 0 3.465-.832 4.477-2.242h.063v1.436h5.541V7h-5.541Zm-23.06 12.93c.348-1.41 1.514-2.33 2.97-2.33 1.604 0 2.71.894 3.001 2.33h-5.971Zm19.695 5.886c-2.044 0-3.313-1.787-3.313-3.649 0-1.992 1.103-3.908 3.313-3.908 2.29 0 3.201 1.916 3.201 3.908 0 1.889-.966 3.648-3.201 3.648ZM83.69 26.446c0-1.757 1.522-3.183 3.413-3.183.447 0 .889.081 1.3.241.413.16.788.394 1.103.69.316.296.566.647.736 1.033.17.387.258.801.258 1.22 0 1.774-1.513 3.2-3.397 3.2a3.602 3.602 0 0 1-1.307-.241 3.428 3.428 0 0 1-1.109-.694 3.187 3.187 0 0 1-.74-1.04 3.022 3.022 0 0 1-.257-1.226Zm6.21 0c0-.695-.294-1.363-.819-1.854a2.895 2.895 0 0 0-1.978-.769c-1.558 0-2.816 1.18-2.816 2.623 0 .347.072.69.214 1.011.141.32.349.612.61.858.262.245.572.44.914.572.342.133.709.201 1.078.2 1.55 0 2.798-1.18 2.798-2.64Zm-3.52.213v1.623h-.626v-3.754h1.294c.734 0 1.495.187 1.495 1.036 0 .433-.28.773-.816.875v.017c.553.101.617.33.68.738.054.356.1.747.235 1.088h-.796c-.047-.213-.11-.451-.137-.672-.044-.323-.044-.618-.225-.798-.155-.152-.364-.135-.58-.152h-.525Zm.66-.586c.59-.018.725-.247.725-.535 0-.279-.136-.424-.633-.424h-.753v.96h.661Z" fill="#fff"/></g><defs><clipPath id="clip0_2310_4488"><path fill="#fff" d="M.5.21h90v42H.5z"/></clipPath></defs></svg>
