<svg width="20" height="20" viewBox="0 0 20 20" fill="none" xmlns="http://www.w3.org/2000/svg">
<g id="bi:three-dots-vertical">
<g id="Group 1">
<path id="Vector" d="M8.4375 16.25C8.4375 16.7473 8.23996 17.2242 7.88833 17.5758C7.53669 17.9275 7.05978 18.125 6.5625 18.125C6.06522 18.125 5.58831 17.9275 5.23667 17.5758C4.88504 17.2242 4.6875 16.7473 4.6875 16.25C4.6875 15.7527 4.88504 15.2758 5.23667 14.9242C5.58831 14.5725 6.06522 14.375 6.5625 14.375C7.05978 14.375 7.53669 14.5725 7.88833 14.9242C8.23996 15.2758 8.4375 15.7527 8.4375 16.25ZM8.4375 10C8.4375 10.4973 8.23996 10.9742 7.88833 11.3258C7.53669 11.6775 7.05978 11.875 6.5625 11.875C6.06522 11.875 5.58831 11.6775 5.23667 11.3258C4.88504 10.9742 4.6875 10.4973 4.6875 10C4.6875 9.50272 4.88504 9.02581 5.23667 8.67417C5.58831 8.32254 6.06522 8.125 6.5625 8.125C7.05978 8.125 7.53669 8.32254 7.88833 8.67417C8.23996 9.02581 8.4375 9.50272 8.4375 10ZM8.4375 3.75C8.4375 4.24728 8.23996 4.72419 7.88833 5.07583C7.53669 5.42746 7.05978 5.625 6.5625 5.625C6.06522 5.625 5.58831 5.42746 5.23667 5.07583C4.88504 4.72419 4.6875 4.24728 4.6875 3.75C4.6875 3.25272 4.88504 2.77581 5.23667 2.42417C5.58831 2.07254 6.06522 1.875 6.5625 1.875C7.05978 1.875 7.53669 2.07254 7.88833 2.42417C8.23996 2.77581 8.4375 3.25272 8.4375 3.75Z" fill="#43434E"/>
<path id="Vector_2" d="M15.3125 16.25C15.3125 16.7473 15.115 17.2242 14.7633 17.5758C14.4117 17.9275 13.9348 18.125 13.4375 18.125C12.9402 18.125 12.4633 17.9275 12.1117 17.5758C11.76 17.2242 11.5625 16.7473 11.5625 16.25C11.5625 15.7527 11.76 15.2758 12.1117 14.9242C12.4633 14.5725 12.9402 14.375 13.4375 14.375C13.9348 14.375 14.4117 14.5725 14.7633 14.9242C15.115 15.2758 15.3125 15.7527 15.3125 16.25ZM15.3125 10C15.3125 10.4973 15.115 10.9742 14.7633 11.3258C14.4117 11.6775 13.9348 11.875 13.4375 11.875C12.9402 11.875 12.4633 11.6775 12.1117 11.3258C11.76 10.9742 11.5625 10.4973 11.5625 10C11.5625 9.50272 11.76 9.02581 12.1117 8.67417C12.4633 8.32254 12.9402 8.125 13.4375 8.125C13.9348 8.125 14.4117 8.32254 14.7633 8.67417C15.115 9.02581 15.3125 9.50272 15.3125 10ZM15.3125 3.75C15.3125 4.24728 15.115 4.72419 14.7633 5.07583C14.4117 5.42746 13.9348 5.625 13.4375 5.625C12.9402 5.625 12.4633 5.42746 12.1117 5.07583C11.76 4.72419 11.5625 4.24728 11.5625 3.75C11.5625 3.25272 11.76 2.77581 12.1117 2.42417C12.4633 2.07254 12.9402 1.875 13.4375 1.875C13.9348 1.875 14.4117 2.07254 14.7633 2.42417C15.115 2.77581 15.3125 3.25272 15.3125 3.75Z" fill="#43434E"/>
</g>
</g>
</svg>
