<svg xmlns="http://www.w3.org/2000/svg" xmlns:xlink="http://www.w3.org/1999/xlink" style="position: absolute; width: 0; height: 0" aria-hidden="true" id="__SVG_SPRITE_NODE__"><symbol xmlns="http://www.w3.org/2000/svg" fill="currentColor" viewBox="0 0 22 22" id="srf-icon-burger"><path d="M1 6V2h20v4H1Zm0 7V9h20v4H1Zm0 7v-4h20v4H1Z"></path></symbol><symbol xmlns="http://www.w3.org/2000/svg" viewBox="0 0 16 16" id="srf-icon-crown"><path d="M3 16h10c.6 0 1-.4 1-1s-.4-1-1-1H3c-.6 0-1 .4-1 1s.4 1 1 1zm0-3h10l1.5-6c.8 0 1.5-.7 1.5-1.5S15.3 4 14.5 4 13 4.7 13 5.5c0 .3.1.6.3.9L10 9 8.5 2.9c.6-.2 1-.8 1-1.4C9.5.7 8.8 0 8 0S6.5.7 6.5 1.5c0 .7.4 1.2 1 1.4L6 9 2.7 6.4c.2-.3.3-.6.3-.9C3 4.7 2.3 4 1.5 4S0 4.7 0 5.5.7 7 1.5 7L3 13z"></path></symbol><symbol xmlns="http://www.w3.org/2000/svg" viewBox="0 0 16 16" id="srf-icon-link"><path d="M9 1v2h2.6L5.3 9.3l1.4 1.4L13 4.4V7h2V1H9zm2 12H3V5h4V3H3c-1.1 0-2 .9-2 2v8c0 1.1.9 2 2 2h8c1.1 0 2-.9 2-2V9h-2v4z"></path></symbol><symbol xmlns="http://www.w3.org/2000/svg" viewBox="0 0 16 16" id="srf-icon-user"><path d="M12.6 12c-1.3-.4-2.6-1-2.6-2v-.8c1.2-.9 2-2.6 2-4.2v-.5C12 2.6 10.4 1 8.5 1h-1C5.6 1 4 2.6 4 4.5V5c0 1.7.8 3.3 2 4.2v.8c0 1-1.3 1.6-2.6 2C2 12.5 1 13.6 1 15h14c0-1.4-1-2.5-2.4-3z"></path></symbol><symbol xmlns="http://www.w3.org/2000/svg" viewBox="0 0 16 16" id="srf-icon-facebook"><path d="M6 16h3V9h3V6H9V5c0-.6.4-1 1-1h2V1h-2C7.8 1 6 2.8 6 5v1H4v3h2v7z"></path></symbol><symbol xmlns="http://www.w3.org/2000/svg" viewBox="0 0 16 16" id="srf-icon-instagram"><path fill-rule="evenodd" clip-rule="evenodd" d="M4 8a4 4 0 1 1 8 0 4 4 0 0 1-8 0Zm4-2a2 2 0 1 0 0 4 2 2 0 0 0 0-4Z"></path><path d="M12 5a1 1 0 1 0 0-2 1 1 0 0 0 0 2Z"></path><path fill-rule="evenodd" clip-rule="evenodd" d="M10 .008 9.52.003C9.143.001 8.659 0 8 0v.003c-2.173 0-2.446.01-3.298.049a5.867 5.867 0 0 0-1.943.371A4.092 4.092 0 0 0 .42 2.763a5.838 5.838 0 0 0-.372 1.94C.008 5.558 0 5.83 0 8.003c0 2.171.009 2.445.048 3.297.013.664.138 1.32.372 1.942a4.088 4.088 0 0 0 2.34 2.34 5.85 5.85 0 0 0 1.942.371c.852.04 1.125.048 3.298.048s2.445-.009 3.298-.048a5.839 5.839 0 0 0 1.942-.372 4.094 4.094 0 0 0 2.34-2.339 5.882 5.882 0 0 0 .372-1.942c.038-.852.048-1.125.048-3.297 0-2.173-.01-2.445-.048-3.298a5.882 5.882 0 0 0-.372-1.941A4.095 4.095 0 0 0 13.24.42a5.866 5.866 0 0 0-1.942-.371C10.828.027 10.534.015 10 .008Zm-.486 1.995H8c-2.162 0-2.4.01-3.207.047l-.026.001h-.026a3.88 3.88 0 0 0-1.27.241A2.092 2.092 0 0 0 2.29 3.476a3.838 3.838 0 0 0-.241 1.266v.027l-.002.027C2.009 5.603 2 5.839 2 8.002c0 2.162.009 2.4.046 3.205l.001.027v.027c.009.433.09.862.242 1.268a2.088 2.088 0 0 0 1.183 1.182c.406.152.835.233 1.268.241h.027l.026.002C5.6 13.991 5.836 14 8 14c2.164 0 2.4-.009 3.207-.046l.026-.001h.027a3.84 3.84 0 0 0 1.267-.242 2.092 2.092 0 0 0 1.184-1.182c.151-.407.233-.836.241-1.27v-.025l.002-.025c.036-.808.046-1.046.046-3.207 0-2.162-.01-2.4-.046-3.208l-.001-.025v-.024a3.881 3.881 0 0 0-.242-1.27 2.096 2.096 0 0 0-1.184-1.186 3.867 3.867 0 0 0-1.268-.24l-.026-.001-.026-.001a33.774 33.774 0 0 0-1.693-.044Z"></path></symbol><symbol xmlns="http://www.w3.org/2000/svg" viewBox="0 0 16 16" id="srf-icon-gplus"><path d="M13 9h1V7h2V6h-2V4h-1v2h-2v1h2v2zm-7.5 4c3 0 5.5-2.5 5.5-5.5V7H5v2h3.7c-.6 1.2-1.7 2-3.2 2C3.6 11 2 9.4 2 7.5S3.6 4 5.5 4c.7 0 1.4.2 1.9.6l1.4-1.4C7.9 2.4 6.8 2 5.5 2 2.5 2 0 4.5 0 7.5S2.5 13 5.5 13z"></path></symbol><symbol xmlns="http://www.w3.org/2000/svg" viewBox="0 0 16 16" id="srf-icon-linkedin"><path d="M11.6 4.6c1 0 1.9.3 2.5 1 .6.7.9 1.7.9 3.1V14h-3V9c0-.7-.1-1.2-.3-1.5-.2-.3-.6-.5-1.1-.5-.8 0-1.3.4-1.5 1.1-.1.1-.1.4-.1.7V14H6V5h3v1.1c.2-.3.3-.5.5-.7.2-.2.4-.3.8-.5s.8-.3 1.3-.3zM1 5h3v9H1z"></path><circle cx="2.5" cy="2.5" r="1.5"></circle></symbol><symbol xmlns="http://www.w3.org/2000/svg" viewBox="0 0 16 16" id="srf-icon-twitter"><path d="M4.5 14C9.8 14 14 9.8 14 4.5v-.2c1.2-.6 2-2 2-3.3-.6.6-1.7 1.1-2.6 1.2C12.9 1.5 12 1 11 1 9.3 1 8 2.3 8 4c0 .2 0 .4.1.7-.7.2-1.4.3-2.1.3C3.6 5 1.6 3.8.3 2 .1 2.5 0 3.1 0 3.7c0 2.9 2.4 5.9 5.2 7C3.8 12 2 12.9 0 13c1.3.7 3 1 4.5 1z"></path></symbol><symbol xmlns="http://www.w3.org/2000/svg" viewBox="0 0 16 16" id="srf-icon-youtube"><path fill-rule="evenodd" clip-rule="evenodd" d="M7.995 3s-5 0-6.256.326A2.068 2.068 0 0 0 .326 4.75C0 6.004 0 8.603 0 8.603s.009 2.409.335 3.644a2.036 2.036 0 0 0 1.413 1.413c1.265.336 6.256.336 6.256.336s5.01 0 6.266-.326a1.988 1.988 0 0 0 1.403-1.413c.336-1.245.327-3.644.327-3.644s.01-2.609-.336-3.864a1.975 1.975 0 0 0-1.403-1.403C13.006 3 7.995 3 7.995 3ZM6.951 6.045l3.399 2.171c.2.128.2.45 0 .577l-3.4 2.162c-.2.128-.45-.032-.45-.288V6.333c0-.256.25-.416.451-.288Z"></path></symbol><symbol xmlns="http://www.w3.org/2000/svg" viewBox="0 0 16 16" id="srf-icon-pinterest"><path d="M8 0a8 8 0 0 0-3.212 15.327c-.021-.558-.004-1.229.14-1.837l1.029-4.359s-.255-.511-.255-1.266c0-1.185.687-2.07 1.543-2.07.727 0 1.078.546 1.078 1.2 0 .732-.466 1.826-.706 2.839-.2.849.426 1.541 1.262 1.541 1.517 0 2.538-1.947 2.538-4.253 0-1.753-1.181-3.065-3.33-3.065-2.426 0-3.938 1.809-3.938 3.831 0 .696.205 1.188.528 1.568.148.175.168.245.115.446-.039.147-.127.502-.163.643-.054.202-.218.274-.401.199-1.118-.456-1.638-1.68-1.638-3.056 0-2.272 1.916-4.998 5.718-4.998 3.054 0 5.064 2.21 5.064 4.583 0 3.139-1.745 5.483-4.317 5.483-.864 0-1.676-.467-1.954-.996 0 0-.465 1.843-.563 2.199-.17.616-.502 1.232-.805 1.713A8 8 0 1 0 8 0"></path></symbol><symbol xmlns="http://www.w3.org/2000/svg" viewBox="0 0 16 16" id="srf-icon-mail"><path fill-rule="evenodd" clip-rule="evenodd" d="M1.5 1A1.5 1.5 0 0 0 0 2.5v11A1.5 1.5 0 0 0 1.5 15h13a1.5 1.5 0 0 0 1.5-1.5v-11A1.5 1.5 0 0 0 14.5 1h-13Zm2.125 2.22a1 1 0 1 0-1.25 1.56l5 4a1 1 0 0 0 1.25 0l5-4a1 1 0 1 0-1.25-1.56L8 6.72l-4.375-3.5Z"></path></symbol><symbol xmlns="http://www.w3.org/2000/svg" viewBox="0 0 16 16" id="srf-icon-dropdown"><path fill-rule="evenodd" clip-rule="evenodd" d="M3.293 6.293a1 1 0 0 1 1.414 0L8 9.586l3.293-3.293a1 1 0 1 1 1.414 1.414l-4 4a1 1 0 0 1-1.414 0l-4-4a1 1 0 0 1 0-1.414Z"></path></symbol><symbol xmlns="http://www.w3.org/2000/svg" viewBox="0 0 16 16" id="srf-icon-dropup"><path d="M2.8 12 8 6.8l5.2 5.2 1.8-2-7-7-7 7 1.8 2z"></path></symbol><symbol xmlns="http://www.w3.org/2000/svg" viewBox="0 0 22 22" id="srf-icon-close"><path d="M11 1C5.5 1 1 5.5 1 11s4.5 10 10 10 10-4.5 10-10S16.5 1 11 1zm0 18c-4.4 0-8-3.6-8-8s3.6-8 8-8 8 3.6 8 8-3.6 8-8 8zm2.5-12L11 9.5 8.5 7 7 8.5 9.5 11 7 13.5 8.5 15l2.5-2.5 2.5 2.5 1.5-1.5-2.5-2.5L15 8.5z"></path></symbol><symbol xmlns="http://www.w3.org/2000/svg" viewBox="0 0 16 16" id="srf-icon-close3"><path d="M3.323 3.323c-.43.43-.43 1.128 0 1.559L6.44 8l-3.118 3.118a1.102 1.102 0 1 0 1.559 1.56L8 9.558l3.118 3.118a1.102 1.102 0 0 0 1.56-1.559L9.558 8l3.118-3.118a1.102 1.102 0 0 0-1.559-1.56L8 6.442 4.882 3.323a1.102 1.102 0 0 0-1.56 0Z"></path></symbol><symbol xmlns="http://www.w3.org/2000/svg" viewBox="0 0 16 16" id="srf-icon-search"><path d="m14.704 13.285-4.537-4.537a4.997 4.997 0 1 0-1.419 1.42l4.537 4.536a1 1 0 0 0 1.638-.325.998.998 0 0 0-.219-1.094ZM3.002 6a2.998 2.998 0 1 1 5.996 0 2.998 2.998 0 0 1-5.996 0Z"></path></symbol><symbol xmlns="http://www.w3.org/2000/svg" fill="none" viewBox="0 0 195 138" id="srf-confirm-email-image"><path fill-rule="evenodd" clip-rule="evenodd" d="m83.119 21.894-1.168 3.838-3.837 1.157 3.826 1.18 1.168 3.838 1.168-3.838 3.838-1.169-3.827-1.168-1.168-3.838Zm90.496 5.64 2.143 7.04 7.037 2.123-7.018 2.162-2.142 7.04-2.143-7.04-7.057-2.123 7.037-2.163 2.143-7.039Zm-2.432 29.43.935-3.07.934 3.07 3.062.935-3.07.935-.935 3.07-.934-3.07-3.061-.944 3.069-.926ZM7.951 38.732l1.168-3.838 1.168 3.838 3.826 1.168-3.837 1.169-1.168 3.837L7.94 41.07l-3.826-1.18 3.837-1.157Z" fill="#CBD1D3"></path><path fill-rule="evenodd" clip-rule="evenodd" d="M72.479 87.479c15.035-15.036 17.093-37.355 4.596-49.851-12.497-12.497-34.816-10.44-49.851 4.596-15.035 15.035-17.093 37.354-4.596 49.85 12.496 12.498 34.816 10.44 49.85-4.595Z" fill="#EEF0F1"></path><path fill-rule="evenodd" clip-rule="evenodd" d="M22.628 92.074c12.496 12.497 34.816 10.439 49.85-4.596 15.036-15.035 17.094-37.354 4.597-49.851s-34.816-10.439-49.851 4.596C12.189 57.258 10.13 79.578 22.628 92.074ZM75.66 39.041c11.652 11.652 9.71 32.717-4.597 47.023-14.305 14.306-35.37 16.248-47.022 4.596-11.652-11.652-9.71-32.717 4.596-47.023 14.306-14.306 35.37-16.248 47.023-4.596Z" fill="#CBD1D3"></path><rect x="85.415" y="98.778" width="9" height="9" rx="4.5" transform="rotate(-45 85.415 98.778)" fill="#fff" stroke="#CBD1D3" stroke-width="2"></rect><rect x="84" y="98.778" width="11" height="11" rx="5.5" transform="rotate(-45 84 98.778)" fill="#fff"></rect><path fill-rule="evenodd" clip-rule="evenodd" d="M95.668 94.889a5.5 5.5 0 1 0-7.779 7.778 5.5 5.5 0 0 0 7.779-7.778Zm-6.365 6.364a3.5 3.5 0 1 1 4.951-4.95 3.5 3.5 0 0 1-4.95 4.95Z" fill="#CBD1D3"></path><path fill-rule="evenodd" clip-rule="evenodd" d="M79.89 102.889c2.147-2.148 5.02-2.758 6.416-1.361l2.723 2.722c1.396 1.396.786 4.269-1.361 6.417-2.148 2.148-5.021 2.757-6.418 1.361l-2.722-2.722c-1.396-1.396-.787-4.269 1.361-6.417Z" fill="#fff"></path><path fill-rule="evenodd" clip-rule="evenodd" d="M86.306 101.528c-1.396-1.397-4.269-.787-6.417 1.361-2.148 2.148-2.757 5.021-1.36 6.417l2.722 2.722c1.396 1.396 4.269.787 6.416-1.361 2.148-2.148 2.758-5.021 1.362-6.417l-2.723-2.722Zm-6.364 6.363c-.455-.455-.1-2.126 1.362-3.588 1.462-1.462 3.133-1.817 3.588-1.361l2.723 2.722c.455.455.1 2.127-1.362 3.589-1.462 1.462-3.133 1.816-3.588 1.361l-2.723-2.723Z" fill="#CBD1D3"></path><path fill-rule="evenodd" clip-rule="evenodd" d="M88.256 104.255c6.053-6.053 4.628-17.291-3.182-25.102-7.81-7.81-19.05-9.235-25.103-3.182-6.053 6.053-4.628 17.292 3.182 25.102 7.81 7.811 19.05 9.236 25.103 3.182Z" fill="#EEF0F1"></path><path fill-rule="evenodd" clip-rule="evenodd" d="M63.154 101.073c7.81 7.811 19.049 9.235 25.102 3.182 6.053-6.053 4.628-17.291-3.182-25.102-7.81-7.81-19.05-9.235-25.102-3.182-6.053 6.053-4.629 17.292 3.182 25.102ZM83.66 80.567c7.097 7.097 8.364 17.092 3.182 22.274-5.182 5.182-15.177 3.915-22.274-3.182-7.097-7.097-8.364-17.092-3.182-22.274 5.182-5.182 15.177-3.915 22.274 3.182Z" fill="#CBD1D3"></path><path fill-rule="evenodd" clip-rule="evenodd" d="M70.548 85.547c8.982-8.981 10.248-22.278 2.828-29.698-7.42-7.42-20.716-6.154-29.699 2.829-8.981 8.981-10.248 22.278-2.828 29.698 7.42 7.42 20.717 6.154 29.699-2.829Z" fill="#fff" stroke="#CBD1D3" stroke-width="2"></path><path fill-rule="evenodd" clip-rule="evenodd" d="M64.242 79.242a2 2 0 1 0-2.828-2.828 2 2 0 0 0 2.828 2.828Z" fill="#CBD1D3"></path><g fill-rule="evenodd" clip-rule="evenodd" fill="#CBD1D3"><path d="M46.95 82.849a7 7 0 1 0 9.899-9.9 7 7 0 0 0-9.9 9.9Zm8.485-8.485a5 5 0 1 1-7.071 7.07 5 5 0 0 1 7.07-7.07Z"></path><path d="M57.07 81.07c1.172-1.17 1.014-3.228-.353-4.595-1.367-1.367-3.424-1.525-4.596-.354-1.172 1.172-1.013 3.23.354 4.596 1.367 1.367 3.424 1.525 4.596.354Z"></path></g><g fill-rule="evenodd" clip-rule="evenodd" fill="#CBD1D3"><path d="M56.95 71.849a7 7 0 1 0 9.9-9.9 7 7 0 0 0-9.9 9.9Zm8.485-8.486a5 5 0 1 1-7.07 7.071 5 5 0 0 1 7.07-7.07Z"></path><path d="M64.071 72.07c1.172-1.17 1.014-3.229-.353-4.595-1.367-1.367-3.425-1.526-4.597-.354-1.171 1.172-1.013 3.23.354 4.596 1.367 1.367 3.425 1.525 4.596.354Z"></path></g><path fill-rule="evenodd" clip-rule="evenodd" d="M23 73.084c3.552-2.163 8.32-4.312 14.013-5.084-.564 5.588-.217 10.974.987 16-7.493-2.407-12.259-7.183-15-10.916Z" fill="#EEF0F1"></path><path fill-rule="evenodd" clip-rule="evenodd" d="M36.89 68.198c-5.693.771-10.46 2.92-14.013 5.083 2.742 3.733 7.507 8.51 15 10.916-1.204-5.026-1.551-10.412-.987-16Zm-2.19 2.414a50.23 50.23 0 0 0 .511 10.398c-3.717-1.736-6.806-4.199-9.32-7.144 2.767-1.468 5.71-2.584 8.808-3.254Z" fill="#CBD1D3"></path><path fill-rule="evenodd" clip-rule="evenodd" d="M54 52.076c.719-5.315 2.736-9.764 4.766-13.076C62.268 41.556 66.75 46.003 69 53c-4.792-1.138-9.863-1.438-15-.924Z" fill="#EEF0F1"></path><path fill-rule="evenodd" clip-rule="evenodd" d="M58.704 39.173c-2.03 3.312-4.047 7.761-4.765 13.076 5.136-.514 10.208-.214 15 .924-2.25-6.997-6.732-11.444-10.235-14Zm.585 3.011c2.64 2.266 4.858 5.03 6.445 8.335a47.689 47.689 0 0 0-9.375-.454c.616-2.766 1.619-5.399 2.93-7.881ZM37 94.485l9.577-7.394 1.03 1.03-9.577 7.393-1.03-1.03ZM43.37 96.026 48.657 90l1.045 1.045-5.288 6.025-1.044-1.044ZM71.586 63.364l7.192-8.365.829.829-7.193 8.364-.828-.828ZM74.37 66.026 79.657 60l1.045 1.045-5.288 6.026-1.044-1.045Z" fill="#CBD1D3"></path><path fill-rule="evenodd" clip-rule="evenodd" d="M30.336 54.367a2 2 0 0 1-2.32-3.26c.022-.014.463-.485 1.081-1.206a2 2 0 0 1 3.038 2.602c-.877 1.024-1.395 1.577-1.799 1.864ZM22.819 72.605a2 2 0 0 1-3.965-.532c.848-6.315 2.375-11.35 4.618-15.113a2 2 0 1 1 3.435 2.048c-1.932 3.242-3.307 7.776-4.088 13.596ZM61.505 92.885c-2.047 0-3.5 1.136-3.5 2.334v4.333c0 1.198 1.453 2.333 3.5 2.333 2.047 0 3.5-1.135 3.5-2.333V95.22c0-1.198-1.452-2.334-3.5-2.334Z" fill="#fff"></path><path fill-rule="evenodd" clip-rule="evenodd" d="M67.005 95.219c0-2.442-2.462-4.334-5.5-4.334-3.037 0-5.5 1.892-5.5 4.334v4.333c0 2.442 2.463 4.333 5.5 4.333 3.038 0 5.5-1.891 5.5-4.333V95.22Zm-9 0c0-1.198 1.453-2.334 3.5-2.334 2.047 0 3.5 1.136 3.5 2.334v4.333c0 1.198-1.452 2.333-3.5 2.333-2.047 0-3.5-1.135-3.5-2.333V95.22Z" fill="#CBD1D3"></path><g fill-rule="evenodd" clip-rule="evenodd"><path d="M163.901 97.128V50.737a1.852 1.852 0 0 0-1.854-1.854H87.819a1.852 1.852 0 0 0-1.854 1.854v46.391a1.85 1.85 0 0 0 1.853 1.854h74.229a1.853 1.853 0 0 0 1.854-1.854Z" fill="#EEF0F1"></path><path d="M162.047 98.982a1.853 1.853 0 0 0 1.854-1.854V50.737a1.852 1.852 0 0 0-1.854-1.854H87.819a1.852 1.852 0 0 0-1.854 1.854v46.391a1.85 1.85 0 0 0 1.853 1.854h74.229ZM87.965 50.883H161.9v46.099H87.964V50.883Z" fill="#CBD1D3"></path><path d="m165.077 97.234-.428-46.928a1.913 1.913 0 0 0-1.095-1.708 1.864 1.864 0 0 0-1.995.24l-31.121 25.847c-.45.376-.694.946-.657 1.538a1.908 1.908 0 0 0 .849 1.464l31.549 21.083a1.88 1.88 0 0 0 1.924.108 1.83 1.83 0 0 0 .974-1.644Z" fill="#EEF0F1"></path><path d="M164.103 98.877a1.83 1.83 0 0 0 .974-1.643l-.428-46.928a1.913 1.913 0 0 0-1.095-1.708 1.864 1.864 0 0 0-1.995.24l-31.121 25.847c-.45.376-.694.946-.657 1.538a1.908 1.908 0 0 0 .849 1.464l31.549 21.083a1.88 1.88 0 0 0 1.924.108ZM131.86 76.105l30.791-25.574.423 46.433-31.214-20.86Z" fill="#CBD1D3"></path><path d="M121.324 76.222a1.85 1.85 0 0 0-.657-1.537L89.545 48.837a1.864 1.864 0 0 0-1.995-.24c-.66.315-1.088.981-1.095 1.708l-.428 46.929A1.844 1.844 0 0 0 87 98.882c.606.319 1.345.28 1.924-.108l31.55-21.084c.497-.332.812-.876.85-1.468Z" fill="#EEF0F1"></path><path d="M120.474 77.69c.497-.332.812-.876.85-1.468a1.85 1.85 0 0 0-.657-1.537L89.545 48.837a1.864 1.864 0 0 0-1.995-.24c-.66.315-1.088.981-1.095 1.708l-.428 46.929A1.844 1.844 0 0 0 87 98.882c.606.319 1.345.28 1.924-.108l31.55-21.084Zm-32.02-27.16 30.792 25.575-31.216 20.86.423-46.435Z" fill="#CBD1D3"></path><path d="M164.321 49.967a1.854 1.854 0 0 0-1.737-1.218l-73.97.002a1.848 1.848 0 0 0-1.308 3.152c.039.04.08.076.122.113l36.986 30.821a1.85 1.85 0 0 0 2.368 0l36.985-30.821a1.849 1.849 0 0 0 .554-2.049Z" fill="#fff"></path><path d="M163.767 52.016a1.849 1.849 0 0 0-1.183-3.267l-73.97.002c-.78 0-1.473.487-1.738 1.217-.246.68-.074 1.432.552 2.048l36.986 30.821a1.85 1.85 0 0 0 2.368 0l36.985-30.821ZM89.034 50.75l73.129-.002-36.565 30.471-36.564-30.47Z" fill="#CBD1D3"></path><path d="M100 28h52a2 2 0 0 1 2 2v29.839a2 2 0 0 1-.736 1.55l-26 21.21a2 2 0 0 1-2.528 0l-26-21.21a2 2 0 0 1-.736-1.55V30a2 2 0 0 1 2-2Z" fill="#fff"></path><path d="M152 28h-52a2 2 0 0 0-2 2v29.839a2 2 0 0 0 .736 1.55l26 21.21a2 2 0 0 0 2.528 0l26-21.21a2 2 0 0 0 .736-1.55V30a2 2 0 0 0-2-2Zm-52 31.839V30h52v29.839l-26 21.21-26-21.21Z" fill="#CBD1D3"></path></g><path fill-rule="evenodd" clip-rule="evenodd" d="M110 44h24a1 1 0 1 1 0 2h-24a1 1 0 0 1 0-2Zm0 6h16a1 1 0 1 1 0 2h-16a1 1 0 0 1 0-2Zm33 7a1 1 0 0 0-1-1h-32a1 1 0 0 0 0 2h32a1 1 0 0 0 1-1Z" fill="#CBD1D3"></path><path fill-rule="evenodd" clip-rule="evenodd" d="M80.073 76.427c0 1.94 1.537 3.5 3.417 3.5h2.167c1.88 0 3.416-1.56 3.416-3.5s-1.536-3.5-3.416-3.5H83.49c-1.88 0-3.416 1.56-3.416 3.5Z" fill="#fff"></path><path fill-rule="evenodd" clip-rule="evenodd" d="M83.49 70.927c-2.991 0-5.416 2.462-5.416 5.5 0 3.037 2.425 5.5 5.416 5.5h2.167c2.991 0 5.416-2.463 5.416-5.5 0-3.038-2.425-5.5-5.416-5.5H83.49Zm0 9c-1.88 0-3.416-1.56-3.416-3.5s1.536-3.5 3.416-3.5h2.167c1.88 0 3.416 1.56 3.416 3.5s-1.536 3.5-3.416 3.5H83.49ZM94.671 118.206a1 1 0 0 0-1.414 1.415l1.242 1.242a1 1 0 1 0 1.415-1.414l-1.243-1.243Zm4.172 4.172a1 1 0 1 0-1.415 1.414l3.9 3.9a1 1 0 0 0 1.414-1.415l-3.9-3.899Zm2.949-7.849a1 1 0 0 1 1.415 0l7.384 7.385a.999.999 0 1 1-1.414 1.414l-7.385-7.385a1 1 0 0 1 0-1.414Zm4.929-8.272a.999.999 0 1 0-1.414 1.414l4.142 4.142a.999.999 0 1 0 1.414-1.414l-4.142-4.142Z" fill="#CBD1D3"></path></symbol></svg>