<svg xmlns="http://www.w3.org/2000/svg" style="display:none;"><symbol id="agency-solutions" viewBox="0 0 64 64"><path d="M54.4 42.286h-2.971v-5.257a.492.492 0 0 0-.458-.458h-2.514a.492.492 0 0 0-.457.458v5.257H16V18.17c0-.571.457-1.028 1.029-1.028h12.228a.492.492 0 0 0 .457-.457V14.17a.492.492 0 0 0-.457-.457H17.028c-2.514 0-4.457 1.943-4.457 4.457v24.115H9.6a.492.492 0 0 0-.457.457v2.514c0 .229.228.457.457.457h19.657L24 50.971c-.229.229-.229.458 0 .686l1.828 1.829c.23.228.458.228.686 0l5.6-5.6 5.6 5.6c.229.228.457.228.686 0l1.828-1.829c.23-.228.23-.457 0-.686l-5.257-5.257H54.63a.492.492 0 0 0 .457-.457v-2.514c-.229-.229-.457-.457-.686-.457Z" style="fill: var(--primary-color);"></path><path d="M19.428 38.4c0 .229.229.457.458.457h12.8a.492.492 0 0 0 .457-.457v-1.371a.492.492 0 0 0-.457-.458h-12.8a.492.492 0 0 0-.457.458V38.4ZM19.886 33.143h5.942a.492.492 0 0 0 .458-.457v-1.372a.492.492 0 0 0-.458-.457h-5.942a.492.492 0 0 0-.457.457v1.372c0 .228.228.457.457.457Z" style="fill: var(--primary-color)"></path><path d="M45.714 21.943c1.715-1.6 2.629-4.114 2.172-6.743a7.31 7.31 0 0 0-5.829-5.829 7.449 7.449 0 0 0-8.914 7.315c0 2.057.914 4 2.286 5.371-3.429 1.829-5.715 5.372-5.715 9.486V32.8c0 .229.229.457.458.457h2.514a.492.492 0 0 0 .457-.457v-1.029c0-3.771 2.743-7.2 6.4-7.657C44.114 23.543 48 27.086 48 31.43v1.257c0 .228.229.457.457.457h2.514a.492.492 0 0 0 .458-.457v-1.257c0-4.115-2.286-7.658-5.715-9.486Zm-5.142-1.372c-2.172 0-4-1.828-4-4 0-2.171 1.828-4 4-4 2.17 0 4 1.829 4 4 0 2.172-1.83 4-4 4Z" style="fill: var(--accent-color)"></path></symbol><symbol id="social" viewBox="0 0 64 64"><path d="M45.6 38.857H34.743a.492.492 0 0 1-.457-.457v-2.514c0-.229.228-.457.457-.457H45.6c2.514 0 4.8-1.486 5.829-3.772l2.971-6.971c.229-.572 0-1.029-.114-1.143-.114-.114-.457-.572-1.029-.572h-8.343c-.228 0-.457-.228-.457-.571l.229-1.486c1.028-7.085-.343-9.371-1.257-10.057-.8-.571-1.6-.571-2.286-.457V16c0 .114 0 .229-.114.343L34.17 23.2c-.228.229-.457.229-.685 0l-1.829-1.829c-.228-.228-.228-.457 0-.685l6.057-6.057V7.77l1.029-.457c.114-.114 3.771-1.6 6.628.686 2.515 1.943 3.43 5.6 2.858 11.314h4.8c1.257 0 2.514.343 3.314 1.257 1.486 1.372 1.943 3.543 1.143 5.258L54.514 32.8c-1.485 3.771-5.028 6.057-8.914 6.057Z" style="fill: var(--accent-color)"></path><path d="M28.114 27.429H17.6a.492.492 0 0 1-.457-.458V25.6c0-.229.228-.457.457-.457h10.514c.229 0 .457.228.457.457v1.371a.492.492 0 0 1-.457.458ZM28.114 33.143H17.6a.492.492 0 0 1-.457-.457v-1.372c0-.228.228-.457.457-.457h10.514c.229 0 .457.229.457.457v1.372a.492.492 0 0 1-.457.457ZM24.686 38.857H17.6a.492.492 0 0 1-.457-.457v-1.371c0-.229.228-.458.457-.458h7.086c.228 0 .457.229.457.458V38.4a.492.492 0 0 1-.457.457Z" style="fill: var(--primary-color)"></path><path d="M49.828 42.286h-2.514a.492.492 0 0 0-.457.457v2.971h-6.4a.492.492 0 0 0-.457.457v2.858l-4.457-3.2c-.114 0-.229-.115-.229-.115H13.943c-.8 0-1.372-.571-1.372-1.371V19.657c0-.8.572-1.371 1.372-1.371h14.171a.492.492 0 0 0 .457-.457v-2.515a.492.492 0 0 0-.457-.457H13.6c-2.514 0-4.457 1.943-4.457 4.457v25.372c0 2.514 1.943 4.457 4.457 4.457h21.143l8 5.486c.343.228.685 0 .685-.343v-5.143h6.4a.492.492 0 0 0 .458-.457v-5.943a.492.492 0 0 0-.458-.457Z" style="fill: var(--primary-color)"></path></symbol><symbol id="ppc" viewBox="0 0 64 64"><path d="M29.714 40H27.43V23.314c0-.228.228-.457.457-.457h1.371c.229 0 .457.229.457.457V40Z" style="fill: var(--primary-color)"></path><path d="M14.286 18.171 9.37 13.257c-.228-.228-.457-.228-.685 0l-1.829 1.829c-.228.228-.228.457 0 .685l6.972 6.972c.228.228.457.228.685 0L25.486 11.77c.228-.228.228-.457 0-.685l-1.829-1.829c-.228-.228-.457-.228-.686 0l-8.685 8.914Z" style="fill: var(--accent-color)"></path><path d="M49.143 20.8V10.286c0-.343-.343-.572-.572-.457L27.771 16c-.228.114-.342.229-.342.457v2.629c0 .343.343.571.571.457l17.714-5.257V44L28.23 38.857h-11.2A1.024 1.024 0 0 1 16 37.83v-9.943a.492.492 0 0 0-.457-.457h-2.514a.492.492 0 0 0-.457.457v9.943c0 2.514 1.942 4.457 4.457 4.457h1.714l3.314 12.228c0 .229.229.343.457.343h10.629c.343 0 .571-.343.457-.571l-3.086-11.2 18.058 5.371c.342.114.571-.114.571-.457V37.6C53.029 36.8 56 33.371 56 29.257S53.03 21.6 49.143 20.8ZM24.686 51.429l-2.514-9.143h4.457l2.514 9.143h-4.457Zm24.457-17.372v-9.714c1.943.686 3.428 2.628 3.428 4.8 0 2.171-1.485 4.114-3.428 4.914Z" style="fill: var(--primary-color)"></path></symbol><symbol id="market-research" viewBox="0 0 64 64"><path d="M20 22.857a1.714 1.714 0 1 0 0-3.428 1.714 1.714 0 0 0 0 3.428ZM25.714 22.857a1.714 1.714 0 1 0 0-3.428 1.714 1.714 0 0 0 0 3.428ZM31.428 22.857a1.714 1.714 0 1 0 0-3.428 1.714 1.714 0 0 0 0 3.428Z" style="fill: var(--primary-color)"></path><path d="m52.114 20.8-9.371 9.371L37.37 24.8c-.228-.229-.457-.229-.685 0l-9.029 9.029c-.229.228-.229.457 0 .685l1.829 1.829c.228.228.457.228.685 0l6.972-6.972 5.371 5.372c.229.228.457.228.686 0l11.428-11.429c.229-.228.229-.457 0-.685L52.8 20.8a.728.728 0 0 0-.686 0Z" style="fill: var(--accent-color)"></path><path d="M52.571 41.257V37.03a.492.492 0 0 0-.457-.458H49.6a.492.492 0 0 0-.457.458v4.228c0 .572-.457 1.029-1.029 1.029H18.743a.492.492 0 0 0-.457.457v2.514c0 .229.228.457.457.457H24v4.572h-2.971a.492.492 0 0 0-.458.457v2.514c0 .229.229.457.457.457h21.943a.492.492 0 0 0 .458-.457v-2.514a.492.492 0 0 0-.458-.457H40v-4.572h8.114c2.515 0 4.457-1.943 4.457-4.457Zm-16 9.029H27.43v-4.572h9.142v4.572ZM45.257 12.571H15.886c-2.515 0-4.457 1.943-4.457 4.458V38.4c0 .229.228.457.457.457H14.4a.491.491 0 0 0 .457-.457V17.029c0-.572.457-1.029 1.029-1.029h29.371a.492.492 0 0 0 .457-.457v-2.514a.492.492 0 0 0-.457-.458Z" style="fill: var(--primary-color)"></path></symbol><symbol id="content" viewBox="0 0 64 64"><path d="M33.829 20.571H22.172a.491.491 0 0 1-.458-.457v-1.371c0-.229.229-.457.458-.457h11.657c.228 0 .457.228.457.457v1.371a.492.492 0 0 1-.457.457ZM28.114 26.286h-5.942a.492.492 0 0 1-.458-.457v-1.372c0-.228.229-.457.458-.457h5.942c.229 0 .457.229.457.457v1.372a.492.492 0 0 1-.457.457Z" style="fill: var(--primary-color)"></path><path d="M29.6 45.714h-7.428a.492.492 0 0 1-.458-.457v-7.543c0-.114 0-.228.115-.343L43.886 15.43c.228-.229.457-.229.685 0l1.83 1.828c.228.229.228.457 0 .686L25.142 38.97v3.315h3.2l21.143-21.143c.228-.229.457-.229.686 0L52 22.97c.229.229.229.458 0 .686L29.943 45.6c-.114.114-.229.114-.343.114Z" style="fill: var(--accent-color)"></path><path d="M13.714 14.743v30.514c0 .229.229.457.457.457h2.515a.492.492 0 0 0 .457-.457V14.743c0-.572.457-1.029 1.029-1.029h22.514a.492.492 0 0 0 .457-.457v-2.514a.492.492 0 0 0-.457-.457H18.172c-2.515 0-4.458 1.943-4.458 4.457ZM49.143 49.257V34.743a.492.492 0 0 0-.457-.457h-2.514a.492.492 0 0 0-.458.457v14.514c0 .572-.457 1.029-1.028 1.029H22.172a.492.492 0 0 0-.458.457v2.514c0 .229.229.457.458.457h22.514c2.514 0 4.457-1.943 4.457-4.457Z" style="fill: var(--primary-color)"></path></symbol><symbol id="seo" viewBox="0 0 64 64"><path d="M21.6 32.571a.492.492 0 0 0-.457.458V34.4c0 .229.228.457.457.457.343 0 .686.114 1.028.343 1.03.457 1.83 1.486 1.943 2.629 0 .228.229.457.457.457H26.4a.492.492 0 0 0 .457-.457c-.229-2.629-2.171-4.915-5.257-5.258Z" style="fill: var(--accent-color)"></path><path d="M21.143 50.286c-3.086 0-6.172-1.143-8.457-3.543a11.933 11.933 0 0 1 0-16.914c4.685-4.686 12.343-4.686 16.914 0 4.571 4.685 4.686 12.342 0 16.914-2.286 2.4-5.372 3.543-8.457 3.543Zm0-20.572c-2.172 0-4.343.8-6.057 2.515-3.315 3.314-3.315 8.8 0 12.114 3.314 3.314 8.8 3.314 12.114 0s3.314-8.8 0-12.114a8.477 8.477 0 0 0-6.057-2.515Z" style="fill: var(--accent-color)"></path><path d="m36.457 52.686-1.829 1.828c-.228.229-.457.229-.685 0L26.628 47.2l2.4-2.4 7.315 7.314c.343.115.343.343.114.572Z" style="fill: var(--accent-color)"></path><path d="M46.171 42.514C48 40.686 50.4 39.771 52.8 39.886c.229 0 .343-.115.457-.229l1.257-2.971c.115-.229 0-.343-.114-.457-1.714-1.715-2.857-4-2.857-6.515 0-2.628 1.028-4.914 2.857-6.514.114-.114.229-.343.114-.457l-1.257-2.972c-.114-.228-.228-.228-.457-.228-2.4 0-4.8-.8-6.629-2.629-1.828-1.828-2.742-4.228-2.628-6.628 0-.229-.114-.343-.229-.457L40.343 8.57c-.229-.114-.343 0-.457.115-1.715 1.714-4 2.857-6.515 2.857-2.628 0-4.914-1.029-6.514-2.857-.114-.115-.343-.229-.457-.115L23.429 9.83c-.229.114-.229.228-.229.457 0 2.4-.8 4.8-2.629 6.628-1.828 1.829-4.228 2.743-6.628 2.629-.229 0-.343.114-.457.228l-1.029 2.515c-.114.228.114.571.343.685 3.657.343 7.314-.8 10.171-3.657A12.482 12.482 0 0 0 26.4 12.8c.686.457 1.486.914 2.286 1.257 1.485.572 3.085.914 4.8.914 2.628 0 5.028-.8 7.085-2.171.458 2.4 1.6 4.686 3.429 6.514 1.143 1.143 2.514 2.057 4.114 2.743.8.343 1.6.572 2.4.686-1.371 2.057-2.171 4.457-2.171 7.086 0 2.628.8 5.028 2.171 7.085-2.4.457-4.685 1.6-6.514 3.429-2.4 2.4-3.657 5.486-3.657 8.914 0 .572.114 1.257.114 1.829l2.972-1.257c.228-.115.228-.229.228-.458-.228-2.628.686-5.028 2.514-6.857Z" style="fill: var(--primary-color)"></path><path d="M34.514 19.429c-3.657-.229-6.857 1.371-8.685 4.114-.229.228 0 .571.228.686l1.372.457c.228.114.342 0 .457-.115 1.371-1.828 3.657-2.971 6.171-2.857 3.657.115 6.743 3.086 7.086 6.743.343 3.543-1.829 6.514-4.8 7.657-.229.115-.343.229-.343.457v1.486c0 .343.343.572.571.457 4.229-1.257 7.2-5.371 6.858-10.057-.458-4.8-4.229-8.686-8.915-9.028Z" style="fill: var(--primary-color)"></path></symbol></svg>